<mxfile host="app.diagrams.net" modified="2023-07-10T13:55:52.040Z" agent="Mozilla/5.0 (Windows NT 10.0; Win64; x64) AppleWebKit/537.36 (KHTML, like Gecko) Chrome/114.0.0.0 Safari/537.36 Edg/114.0.1823.67" etag="7XkUXTQE72fErnonUmU6" version="21.6.1" type="github">
  <diagram name="第 1 页" id="yOHOC9veb8_BCosYYFFb">
    <mxGraphModel dx="1172" dy="674" grid="1" gridSize="10" guides="1" tooltips="1" connect="1" arrows="1" fold="1" page="1" pageScale="1" pageWidth="827" pageHeight="1169" math="0" shadow="0">
      <root>
        <mxCell id="0" />
        <mxCell id="1" parent="0" />
        <mxCell id="HdFPSuiChNzXRNqbuc80-1" value="" style="whiteSpace=wrap;html=1;aspect=fixed;" parent="1" vertex="1">
          <mxGeometry x="86" y="120" width="80" height="80" as="geometry" />
        </mxCell>
        <mxCell id="HdFPSuiChNzXRNqbuc80-2" value="" style="whiteSpace=wrap;html=1;aspect=fixed;" parent="1" vertex="1">
          <mxGeometry x="406" y="120" width="80" height="80" as="geometry" />
        </mxCell>
        <mxCell id="HdFPSuiChNzXRNqbuc80-3" value="" style="whiteSpace=wrap;html=1;aspect=fixed;" parent="1" vertex="1">
          <mxGeometry x="326" y="120" width="80" height="80" as="geometry" />
        </mxCell>
        <mxCell id="HdFPSuiChNzXRNqbuc80-4" value="" style="whiteSpace=wrap;html=1;aspect=fixed;" parent="1" vertex="1">
          <mxGeometry x="246" y="120" width="80" height="80" as="geometry" />
        </mxCell>
        <mxCell id="HdFPSuiChNzXRNqbuc80-5" value="" style="whiteSpace=wrap;html=1;aspect=fixed;" parent="1" vertex="1">
          <mxGeometry x="166" y="120" width="80" height="80" as="geometry" />
        </mxCell>
        <mxCell id="HdFPSuiChNzXRNqbuc80-6" value="" style="whiteSpace=wrap;html=1;aspect=fixed;" parent="1" vertex="1">
          <mxGeometry x="486" y="120" width="80" height="80" as="geometry" />
        </mxCell>
        <mxCell id="HdFPSuiChNzXRNqbuc80-19" value="" style="whiteSpace=wrap;html=1;aspect=fixed;" parent="1" vertex="1">
          <mxGeometry x="86" y="200" width="80" height="80" as="geometry" />
        </mxCell>
        <mxCell id="HdFPSuiChNzXRNqbuc80-20" value="" style="whiteSpace=wrap;html=1;aspect=fixed;" parent="1" vertex="1">
          <mxGeometry x="406" y="200" width="80" height="80" as="geometry" />
        </mxCell>
        <mxCell id="HdFPSuiChNzXRNqbuc80-21" value="" style="whiteSpace=wrap;html=1;aspect=fixed;" parent="1" vertex="1">
          <mxGeometry x="326" y="200" width="80" height="80" as="geometry" />
        </mxCell>
        <mxCell id="HdFPSuiChNzXRNqbuc80-22" value="" style="whiteSpace=wrap;html=1;aspect=fixed;" parent="1" vertex="1">
          <mxGeometry x="246" y="200" width="80" height="80" as="geometry" />
        </mxCell>
        <mxCell id="HdFPSuiChNzXRNqbuc80-23" value="" style="whiteSpace=wrap;html=1;aspect=fixed;" parent="1" vertex="1">
          <mxGeometry x="166" y="200" width="80" height="80" as="geometry" />
        </mxCell>
        <mxCell id="HdFPSuiChNzXRNqbuc80-24" value="" style="whiteSpace=wrap;html=1;aspect=fixed;" parent="1" vertex="1">
          <mxGeometry x="486" y="200" width="80" height="80" as="geometry" />
        </mxCell>
        <mxCell id="HdFPSuiChNzXRNqbuc80-25" value="" style="whiteSpace=wrap;html=1;aspect=fixed;" parent="1" vertex="1">
          <mxGeometry x="86" y="280" width="80" height="80" as="geometry" />
        </mxCell>
        <mxCell id="HdFPSuiChNzXRNqbuc80-26" value="" style="whiteSpace=wrap;html=1;aspect=fixed;" parent="1" vertex="1">
          <mxGeometry x="406" y="280" width="80" height="80" as="geometry" />
        </mxCell>
        <mxCell id="HdFPSuiChNzXRNqbuc80-27" value="" style="whiteSpace=wrap;html=1;aspect=fixed;" parent="1" vertex="1">
          <mxGeometry x="326" y="280" width="80" height="80" as="geometry" />
        </mxCell>
        <mxCell id="HdFPSuiChNzXRNqbuc80-28" value="" style="whiteSpace=wrap;html=1;aspect=fixed;" parent="1" vertex="1">
          <mxGeometry x="246" y="280" width="80" height="80" as="geometry" />
        </mxCell>
        <mxCell id="HdFPSuiChNzXRNqbuc80-29" value="" style="whiteSpace=wrap;html=1;aspect=fixed;" parent="1" vertex="1">
          <mxGeometry x="166" y="280" width="80" height="80" as="geometry" />
        </mxCell>
        <mxCell id="HdFPSuiChNzXRNqbuc80-30" value="" style="whiteSpace=wrap;html=1;aspect=fixed;" parent="1" vertex="1">
          <mxGeometry x="486" y="280" width="80" height="80" as="geometry" />
        </mxCell>
        <mxCell id="HdFPSuiChNzXRNqbuc80-31" value="" style="whiteSpace=wrap;html=1;aspect=fixed;" parent="1" vertex="1">
          <mxGeometry x="86" y="360" width="80" height="80" as="geometry" />
        </mxCell>
        <mxCell id="HdFPSuiChNzXRNqbuc80-32" value="" style="whiteSpace=wrap;html=1;aspect=fixed;" parent="1" vertex="1">
          <mxGeometry x="406" y="360" width="80" height="80" as="geometry" />
        </mxCell>
        <mxCell id="HdFPSuiChNzXRNqbuc80-33" value="" style="whiteSpace=wrap;html=1;aspect=fixed;" parent="1" vertex="1">
          <mxGeometry x="326" y="360" width="80" height="80" as="geometry" />
        </mxCell>
        <mxCell id="HdFPSuiChNzXRNqbuc80-34" value="" style="whiteSpace=wrap;html=1;aspect=fixed;" parent="1" vertex="1">
          <mxGeometry x="246" y="360" width="80" height="80" as="geometry" />
        </mxCell>
        <mxCell id="HdFPSuiChNzXRNqbuc80-35" value="" style="whiteSpace=wrap;html=1;aspect=fixed;" parent="1" vertex="1">
          <mxGeometry x="166" y="360" width="80" height="80" as="geometry" />
        </mxCell>
        <mxCell id="HdFPSuiChNzXRNqbuc80-36" value="" style="whiteSpace=wrap;html=1;aspect=fixed;" parent="1" vertex="1">
          <mxGeometry x="486" y="360" width="80" height="80" as="geometry" />
        </mxCell>
        <mxCell id="HdFPSuiChNzXRNqbuc80-37" value="" style="whiteSpace=wrap;html=1;aspect=fixed;" parent="1" vertex="1">
          <mxGeometry x="86" y="440" width="80" height="80" as="geometry" />
        </mxCell>
        <mxCell id="HdFPSuiChNzXRNqbuc80-38" value="" style="whiteSpace=wrap;html=1;aspect=fixed;" parent="1" vertex="1">
          <mxGeometry x="406" y="440" width="80" height="80" as="geometry" />
        </mxCell>
        <mxCell id="HdFPSuiChNzXRNqbuc80-39" value="" style="whiteSpace=wrap;html=1;aspect=fixed;" parent="1" vertex="1">
          <mxGeometry x="326" y="440" width="80" height="80" as="geometry" />
        </mxCell>
        <mxCell id="HdFPSuiChNzXRNqbuc80-40" value="" style="whiteSpace=wrap;html=1;aspect=fixed;" parent="1" vertex="1">
          <mxGeometry x="246" y="440" width="80" height="80" as="geometry" />
        </mxCell>
        <mxCell id="HdFPSuiChNzXRNqbuc80-41" value="" style="whiteSpace=wrap;html=1;aspect=fixed;" parent="1" vertex="1">
          <mxGeometry x="166" y="440" width="80" height="80" as="geometry" />
        </mxCell>
        <mxCell id="HdFPSuiChNzXRNqbuc80-42" value="" style="whiteSpace=wrap;html=1;aspect=fixed;" parent="1" vertex="1">
          <mxGeometry x="486" y="440" width="80" height="80" as="geometry" />
        </mxCell>
        <mxCell id="HdFPSuiChNzXRNqbuc80-43" value="" style="whiteSpace=wrap;html=1;aspect=fixed;" parent="1" vertex="1">
          <mxGeometry x="86" y="520" width="80" height="80" as="geometry" />
        </mxCell>
        <mxCell id="HdFPSuiChNzXRNqbuc80-44" value="" style="whiteSpace=wrap;html=1;aspect=fixed;" parent="1" vertex="1">
          <mxGeometry x="406" y="520" width="80" height="80" as="geometry" />
        </mxCell>
        <mxCell id="HdFPSuiChNzXRNqbuc80-45" value="" style="whiteSpace=wrap;html=1;aspect=fixed;" parent="1" vertex="1">
          <mxGeometry x="326" y="520" width="80" height="80" as="geometry" />
        </mxCell>
        <mxCell id="HdFPSuiChNzXRNqbuc80-46" value="" style="whiteSpace=wrap;html=1;aspect=fixed;" parent="1" vertex="1">
          <mxGeometry x="246" y="520" width="80" height="80" as="geometry" />
        </mxCell>
        <mxCell id="HdFPSuiChNzXRNqbuc80-47" value="" style="whiteSpace=wrap;html=1;aspect=fixed;" parent="1" vertex="1">
          <mxGeometry x="166" y="520" width="80" height="80" as="geometry" />
        </mxCell>
        <mxCell id="HdFPSuiChNzXRNqbuc80-48" value="" style="whiteSpace=wrap;html=1;aspect=fixed;" parent="1" vertex="1">
          <mxGeometry x="486" y="520" width="80" height="80" as="geometry" />
        </mxCell>
        <mxCell id="HdFPSuiChNzXRNqbuc80-52" value="" style="rounded=0;whiteSpace=wrap;html=1;fillColor=#f8cecc;strokeColor=#b85450;strokeWidth=3;" parent="1" vertex="1">
          <mxGeometry x="85" y="121" width="120" height="60" as="geometry" />
        </mxCell>
        <mxCell id="HdFPSuiChNzXRNqbuc80-54" value="" style="endArrow=classic;html=1;rounded=0;strokeWidth=5;fillColor=#dae8fc;strokeColor=#6c8ebf;" parent="1" edge="1">
          <mxGeometry width="50" height="50" relative="1" as="geometry">
            <mxPoint x="16" y="150" as="sourcePoint" />
            <mxPoint x="710" y="149.41" as="targetPoint" />
          </mxGeometry>
        </mxCell>
        <mxCell id="HdFPSuiChNzXRNqbuc80-55" value="" style="endArrow=classic;html=1;rounded=0;strokeWidth=5;fillColor=#dae8fc;strokeColor=#6c8ebf;" parent="1" edge="1">
          <mxGeometry width="50" height="50" relative="1" as="geometry">
            <mxPoint x="145.41" y="70" as="sourcePoint" />
            <mxPoint x="146" y="680" as="targetPoint" />
          </mxGeometry>
        </mxCell>
        <mxCell id="OoMHXcQIOMjN5isPngi--1" value="" style="rounded=0;whiteSpace=wrap;html=1;fillColor=#f8cecc;strokeColor=#b85450;strokeWidth=3;" vertex="1" parent="1">
          <mxGeometry x="276" y="290" width="120" height="60" as="geometry" />
        </mxCell>
        <mxCell id="OoMHXcQIOMjN5isPngi--2" value="X" style="text;html=1;align=center;verticalAlign=middle;whiteSpace=wrap;rounded=0;fontStyle=1;fontSize=20;" vertex="1" parent="1">
          <mxGeometry x="646" y="110" width="60" height="30" as="geometry" />
        </mxCell>
        <mxCell id="OoMHXcQIOMjN5isPngi--3" value="Y" style="text;html=1;align=center;verticalAlign=middle;whiteSpace=wrap;rounded=0;fontStyle=1;fontSize=20;" vertex="1" parent="1">
          <mxGeometry x="145" y="650" width="60" height="30" as="geometry" />
        </mxCell>
        <mxCell id="OoMHXcQIOMjN5isPngi--4" value="&lt;div style=&quot;text-align: left;&quot;&gt;&lt;span style=&quot;font-size: 14px; background-color: initial;&quot;&gt;&lt;b&gt;有颜色的框是屏幕&lt;/b&gt;&lt;/span&gt;&lt;/div&gt;&lt;font style=&quot;font-size: 14px;&quot;&gt;&lt;b&gt;&lt;div style=&quot;text-align: left;&quot;&gt;&lt;span style=&quot;background-color: initial;&quot;&gt;背景是图片的拼接&lt;/span&gt;&lt;/div&gt;&lt;div style=&quot;text-align: left;&quot;&gt;&lt;span style=&quot;background-color: initial;&quot;&gt;屏幕的中心和玩家坐标一致&lt;/span&gt;&lt;/div&gt;&lt;/b&gt;&lt;/font&gt;" style="text;html=1;strokeColor=none;fillColor=none;align=center;verticalAlign=middle;whiteSpace=wrap;rounded=0;" vertex="1" parent="1">
          <mxGeometry x="581" y="190" width="190" height="70" as="geometry" />
        </mxCell>
      </root>
    </mxGraphModel>
  </diagram>
</mxfile>
